<?xml version="1.0" standalone="no"?>
<!DOCTYPE svg PUBLIC "-//W3C//DTD SVG 20010904//EN"
 "http://www.w3.org/TR/2001/REC-SVG-20010904/DTD/svg10.dtd">
<svg version="1.0" xmlns="http://www.w3.org/2000/svg"
 width="500.000000pt" height="500.000000pt" viewBox="0 0 500.000000 500.000000"
 preserveAspectRatio="xMidYMid meet">
<metadata>
Created by potrace 1.10, written by Peter Selinger 2001-2011
</metadata>
<g transform="translate(0.000000,500.000000) scale(0.100000,-0.100000)"
fill="#000000" stroke="none">
<path d="M1122 4993 c621 -2 1635 -2 2255 0 621 1 113 2 -1127 2 -1240 0
-1748 -1 -1128 -2z"/>
<path d="M1740 4149 c-134 -22 -289 -137 -357 -264 -61 -117 -63 -135 -63
-648 0 -272 4 -487 10 -518 24 -124 121 -269 228 -337 26 -17 82 -42 124 -56
l77 -26 483 0 c399 0 494 3 542 15 150 39 272 136 336 269 21 44 44 101 49
126 6 27 11 235 11 527 l0 481 -24 71 c-13 39 -36 92 -52 118 -41 72 -130 153
-207 191 -124 60 -145 62 -647 61 -250 -1 -480 -5 -510 -10z m1012 -43 c186
-40 332 -179 372 -356 23 -99 23 -957 1 -1043 -23 -89 -62 -156 -129 -223 -67
-67 -134 -106 -223 -129 -88 -23 -976 -22 -1054 1 -173 52 -300 180 -344 349
-22 87 -22 963 0 1050 23 85 62 152 130 220 68 69 142 109 236 129 94 21 915
22 1011 2z"/>
<path d="M2411 3810 c-13 -6 -35 -19 -50 -29 -40 -29 -236 -81 -303 -81 -50 0
-60 -4 -87 -31 -17 -17 -31 -40 -31 -51 0 -32 -156 -186 -203 -200 -77 -23
-126 -104 -96 -159 6 -13 24 -38 39 -55 37 -43 67 -155 52 -190 -31 -68 0
-133 76 -158 65 -22 129 -76 157 -133 27 -53 67 -83 112 -83 30 0 93 33 93 49
0 23 113 44 251 45 76 1 111 5 123 15 23 19 46 65 46 90 0 12 32 57 70 101 55
62 78 81 105 86 41 7 90 58 100 103 7 32 -12 79 -47 118 -17 18 -19 31 -14 95
3 40 8 94 11 120 10 72 -24 111 -115 132 -35 8 -117 90 -141 141 -31 66 -93
97 -148 75z m74 -36 c18 -7 45 -54 46 -81 0 -10 32 -46 72 -80 59 -53 77 -63
107 -63 43 0 67 -22 76 -68 5 -24 2 -38 -11 -52 -25 -28 -23 -189 3 -208 44
-32 52 -44 52 -73 0 -42 -51 -93 -84 -85 -20 5 -36 -9 -114 -98 -71 -80 -90
-108 -85 -125 9 -34 -22 -71 -60 -71 -18 0 -37 4 -43 10 -12 12 -277 -27 -283
-43 -10 -29 -52 -57 -85 -57 -46 0 -94 49 -80 83 7 20 -138 127 -179 133 -58
7 -85 66 -48 103 19 19 18 21 -5 112 -15 56 -31 99 -42 106 -49 35 -64 71 -46
118 7 18 55 45 80 45 21 0 218 189 220 210 1 8 2 23 3 32 2 26 60 53 83 39 27
-17 305 63 331 95 18 24 57 31 92 18z"/>
<path d="M2421 3733 c-23 -16 -28 -52 -9 -71 19 -19 66 -15 78 7 24 46 -27 94
-69 64z"/>
<path d="M2325 3685 c-5 -2 -44 -13 -85 -25 -135 -39 -136 -39 -136 -58 0 -13
35 -38 115 -85 l114 -66 35 85 c31 79 32 87 18 103 -9 10 -16 25 -16 34 0 16
-19 21 -45 12z m21 -60 c9 -21 -20 -100 -38 -103 -16 -3 -128 58 -128 70 0 8
114 46 143 47 10 1 20 -6 23 -14z"/>
<path d="M2510 3641 c0 -5 -9 -12 -19 -16 -15 -5 -19 -13 -15 -38 10 -76 12
-93 13 -104 1 -8 17 -13 44 -13 59 0 84 9 101 35 14 21 12 25 -55 84 -38 34
-69 58 -69 52z m59 -95 c15 -18 6 -36 -19 -36 -19 0 -30 19 -30 51 0 16 3 18
18 10 10 -5 24 -17 31 -25z"/>
<path d="M2014 3616 c-10 -26 4 -48 28 -44 17 2 23 10 23 28 0 18 -6 26 -23
28 -13 2 -25 -3 -28 -12z"/>
<path d="M2403 3537 c-17 -45 -30 -83 -29 -85 2 -1 22 0 44 4 l41 6 -6 52
c-11 112 -15 113 -50 23z"/>
<path d="M1902 3457 l-92 -92 12 -33 c7 -17 17 -32 23 -32 5 -1 46 -7 90 -15
44 -8 82 -15 85 -15 7 0 2 258 -5 270 -3 5 -9 10 -13 10 -4 0 -49 -42 -100
-93z m80 -63 c-2 -32 -7 -63 -12 -67 -13 -14 -94 7 -98 25 -3 18 87 110 103
105 6 -2 9 -29 7 -63z"/>
<path d="M2073 3542 c-11 -7 -24 -222 -13 -222 3 0 13 12 23 25 14 19 15 29 7
44 -19 37 18 91 64 91 9 0 25 -9 36 -20 13 -13 33 -20 57 -20 35 0 36 1 18 14
-19 12 -174 96 -178 96 -1 0 -7 -4 -14 -8z"/>
<path d="M2673 3508 c-21 -28 -22 -49 -3 -68 36 -36 80 -20 80 30 0 14 -5 31
-12 38 -16 16 -53 15 -65 0z"/>
<path d="M2122 3427 c-16 -19 8 -50 34 -45 28 5 26 52 -2 56 -11 2 -26 -3 -32
-11z"/>
<path d="M2518 3433 c-25 -4 -26 -7 -21 -41 5 -32 43 -80 63 -82 13 0 81 103
76 116 -5 14 -54 17 -118 7z"/>
<path d="M2396 3422 c-6 -10 62 -48 70 -39 3 3 3 15 -1 26 -4 15 -15 21 -35
21 -16 0 -31 -4 -34 -8z"/>
<path d="M2299 3415 c-3 -2 -22 -5 -43 -7 -29 -2 -41 -8 -54 -30 -9 -15 -23
-28 -32 -29 -8 -1 -22 -2 -32 -3 -9 0 -30 -19 -48 -41 l-32 -40 61 -8 c57 -8
63 -7 92 17 17 14 39 26 48 26 13 0 25 17 40 56 11 31 21 58 21 60 0 5 -16 5
-21 -1z"/>
<path d="M2344 3383 c-3 -10 -12 -32 -20 -50 -18 -39 -18 -48 1 -63 8 -7 15
-21 15 -32 0 -22 7 -24 78 -32 l52 -5 0 68 0 68 -52 29 c-71 39 -67 38 -74 17z
m80 -86 c12 -33 -3 -52 -33 -42 -22 7 -38 46 -26 65 12 20 49 6 59 -23z"/>
<path d="M2628 3338 l-37 -51 42 -31 c23 -17 45 -34 48 -39 4 -5 16 -4 28 3
21 11 22 17 18 88 -5 76 -5 77 -33 80 -25 2 -35 -6 -66 -50z m57 -38 c0 -7 -6
-15 -12 -17 -8 -3 -13 4 -13 17 0 13 5 20 13 18 6 -3 12 -11 12 -18z"/>
<path d="M1719 3329 c-24 -24 -22 -57 6 -75 50 -33 102 46 53 80 -29 21 -34
20 -59 -5z"/>
<path d="M2500 3264 l0 -47 20 26 c24 30 24 34 6 53 -22 22 -26 17 -26 -32z"/>
<path d="M1830 3263 c0 -5 28 -28 61 -52 l61 -43 24 28 c25 31 26 46 3 49 -7
1 -38 5 -67 9 -29 4 -59 9 -67 12 -8 4 -15 2 -15 -3z"/>
<path d="M2219 3239 c-17 -33 3 -69 39 -69 33 0 52 16 52 45 0 29 -19 45 -52
45 -18 0 -31 -7 -39 -21z"/>
<path d="M2546 3226 l-25 -34 60 -6 c33 -4 67 -10 75 -13 30 -11 12 14 -35 49
l-49 37 -26 -33z"/>
<path d="M1787 3223 c-11 -3 -16 -11 -13 -21 3 -9 14 -54 26 -99 12 -46 27
-83 34 -83 11 0 91 108 91 122 0 8 -106 89 -114 87 -3 -1 -14 -3 -24 -6z m73
-78 c10 -12 10 -19 1 -28 -9 -9 -14 -9 -21 3 -22 34 -4 54 20 25z"/>
<path d="M2056 3215 c-3 -9 -6 -38 -6 -65 0 -48 0 -49 59 -84 66 -41 71 -42
71 -21 0 9 9 34 19 56 20 40 20 40 0 60 -10 10 -19 25 -19 33 0 20 -6 23 -66
31 -43 5 -52 4 -58 -10z m92 -47 c19 -19 15 -68 -6 -68 -26 0 -42 20 -42 52 0
30 25 39 48 16z"/>
<path d="M1995 3174 c-16 -24 -16 -26 2 -40 26 -20 28 -18 28 26 0 47 -6 50
-30 14z"/>
<path d="M2716 3181 c-35 -39 -4 -90 47 -77 33 8 43 40 23 71 -20 30 -47 32
-70 6z"/>
<path d="M2312 3154 c-14 -16 -30 -24 -42 -21 -14 4 -23 -8 -44 -56 l-26 -60
52 6 c40 5 57 13 73 33 15 19 31 27 51 26 23 0 35 8 58 39 15 22 27 42 25 44
-2 2 -31 6 -64 9 -55 5 -62 3 -83 -20z"/>
<path d="M2500 3025 c0 -102 3 -135 13 -134 11 0 168 178 174 196 2 5 -7 20
-20 34 -19 23 -32 28 -94 33 l-73 6 0 -135z m126 70 c6 -16 -59 -105 -77 -105
-10 0 -13 103 -2 113 13 14 74 7 79 -8z"/>
<path d="M1912 3059 c-23 -33 -40 -64 -37 -69 3 -5 18 -7 33 -5 15 2 49 7 76
10 l48 7 -6 36 c-5 33 -44 83 -63 81 -4 0 -27 -27 -51 -60z"/>
<path d="M2449 3092 c-11 -16 -15 -36 -12 -60 4 -28 0 -42 -17 -59 -27 -30
-51 -29 -88 2 -23 20 -34 23 -58 16 l-29 -9 30 -13 c17 -8 61 -32 98 -53 93
-52 99 -46 95 95 -3 100 -4 103 -19 81z"/>
<path d="M2058 3029 c4 -30 18 -35 57 -20 18 7 15 10 -21 29 l-40 21 4 -30z"/>
<path d="M2351 3036 c-17 -20 -3 -46 24 -46 29 0 38 13 30 40 -7 23 -37 26
-54 6z"/>
<path d="M1794 2976 c-10 -26 4 -48 28 -44 17 2 23 10 23 28 0 18 -6 26 -23
28 -13 2 -25 -3 -28 -12z"/>
<path d="M2098 2973 c-31 -5 -32 -13 -19 -93 l8 -45 22 50 c39 85 42 95 28 94
-6 -1 -24 -4 -39 -6z"/>
<path d="M2180 2969 c0 -8 -13 -41 -29 -75 l-28 -60 21 -26 21 -26 95 14 c161
23 160 23 160 44 0 11 -4 20 -9 20 -5 0 -53 25 -105 55 -115 67 -126 71 -126
54z m118 -97 c30 -20 17 -28 -60 -37 -56 -7 -58 -7 -58 17 0 13 7 34 16 46 15
21 16 21 47 5 18 -9 42 -23 55 -31z"/>
<path d="M2010 2964 c-8 -2 -40 -6 -72 -9 -58 -6 -85 -30 -54 -47 8 -4 39 -28
70 -53 53 -43 56 -45 75 -29 16 14 18 26 14 73 -6 61 -10 69 -33 65z m-13 -59
c3 -9 3 -19 -1 -22 -8 -9 -37 18 -30 28 8 14 24 11 31 -6z"/>
<path d="M2460 2855 c-6 -8 -9 -23 -5 -35 8 -26 43 -24 59 3 9 15 7 21 -8 33
-25 18 -31 18 -46 -1z"/>
<path d="M2048 2799 c-33 -19 -12 -89 26 -89 37 0 61 48 40 79 -16 23 -39 26
-66 10z"/>
<path d="M1380 1884 l0 -194 35 0 35 0 0 64 c0 65 6 96 19 96 4 0 33 -36 65
-80 55 -77 59 -80 97 -80 21 0 39 3 39 8 0 4 -34 51 -75 105 l-75 99 26 31
c14 18 46 53 70 79 56 59 56 70 2 62 -24 -4 -43 -7 -43 -8 0 -1 -21 -26 -46
-56 -25 -30 -53 -66 -62 -80 -9 -13 -17 -20 -18 -15 0 6 -2 43 -2 84 l-2 73
-32 3 -33 3 0 -194z m65 -4 c0 -7 -6 -15 -12 -17 -8 -3 -13 4 -13 17 0 13 5
20 13 18 6 -3 12 -11 12 -18z"/>
<path d="M2830 1881 l0 -194 95 6 c152 9 189 46 190 192 0 140 -43 181 -198
187 l-87 3 0 -194z m184 110 c42 -35 44 -171 3 -209 -13 -11 -42 -22 -69 -25
l-48 -5 0 132 0 132 49 -6 c27 -3 56 -12 65 -19z"/>
<path d="M1713 1973 c-3 -7 -4 -65 -2 -128 4 -101 7 -117 25 -136 29 -29 85
-29 123 -1 36 27 43 27 39 5 -2 -14 5 -19 30 -21 l33 -3 -3 147 -3 148 -30 0
-30 0 -5 -104 -5 -105 -37 -20 c-36 -19 -38 -19 -55 -2 -15 15 -18 36 -19 124
l-1 106 -28 2 c-15 0 -29 -5 -32 -12z"/>
<path d="M2126 1969 c-21 -17 -26 -18 -26 -5 0 11 -10 16 -32 16 l-33 0 2
-142 1 -143 31 -3 30 -3 3 107 3 107 34 18 c54 29 61 16 61 -117 l0 -114 35 0
35 0 0 105 0 105 32 20 c23 14 36 16 50 9 16 -9 18 -24 18 -124 l0 -115 31 0
31 0 -4 136 c-3 121 -5 137 -22 150 -30 22 -81 17 -113 -10 l-28 -24 -22 24
c-28 30 -80 32 -117 3z"/>
<path d="M2558 1974 c-40 -21 -58 -63 -58 -136 0 -104 40 -150 130 -150 88 0
130 47 130 145 0 73 -20 121 -59 141 -38 20 -107 20 -143 0z m103 -44 c6 0 17
-17 25 -37 18 -43 12 -108 -13 -135 -21 -24 -66 -23 -88 2 -22 24 -30 96 -16
133 11 28 46 49 69 41 8 -2 18 -4 23 -4z"/>
<path d="M1414 1464 c3 -9 7 -37 7 -62 2 -44 2 -45 8 -13 8 48 31 53 31 7 0
-20 5 -36 10 -36 6 0 10 18 10 40 0 36 -2 40 -26 40 -21 0 -25 4 -21 20 3 13
0 20 -10 20 -10 0 -13 -6 -9 -16z"/>
<path d="M1507 1473 c-9 -18 -7 -113 3 -113 6 0 10 25 10 60 0 56 -3 70 -13
53z"/>
<path d="M1762 1460 c-10 -26 -3 -100 9 -100 8 0 14 54 10 88 -1 6 3 12 9 12
5 0 10 5 10 10 0 18 -31 10 -38 -10z"/>
<path d="M2500 1420 c0 -33 4 -60 10 -60 6 0 10 7 10 17 0 15 1 15 18 0 28
-25 35 -20 15 10 -13 19 -14 28 -5 31 6 2 12 11 12 20 -1 14 -5 12 -20 -7
l-20 -23 0 36 c0 20 -4 36 -10 36 -6 0 -10 -27 -10 -60z"/>
<path d="M2778 1420 c5 -78 17 -78 18 0 1 37 -3 60 -10 60 -7 0 -10 -21 -8
-60z"/>
<path d="M2820 1420 c0 -33 4 -60 10 -60 6 0 10 27 10 60 0 33 -4 60 -10 60
-6 0 -10 -27 -10 -60z"/>
<path d="M2906 1458 c-11 -45 -7 -98 9 -98 11 0 13 7 9 29 -4 17 -1 32 5 36 9
5 9 10 0 21 -9 11 -8 14 5 14 9 0 16 5 16 10 0 20 -38 10 -44 -12z"/>
<path d="M1160 1415 c0 -30 5 -55 10 -55 6 0 10 15 10 33 l1 32 29 -32 c16
-18 32 -33 35 -33 3 0 5 25 5 55 0 30 -4 55 -10 55 -5 0 -10 -16 -10 -37 l0
-36 -27 36 c-16 20 -31 36 -35 37 -5 0 -8 -25 -8 -55z"/>
<path d="M1358 1448 c-9 -27 7 -83 25 -86 9 -2 17 1 17 7 0 6 -4 11 -10 11 -5
0 -10 11 -10 25 0 14 5 25 11 25 6 0 4 7 -5 15 -18 18 -23 19 -28 3z"/>
<path d="M1288 1439 c-29 -17 -20 -79 11 -79 23 0 41 20 41 45 0 20 -17 45
-29 45 -4 0 -14 -5 -23 -11z m32 -40 c0 -10 -7 -19 -15 -19 -15 0 -21 31 -9
43 11 10 24 -3 24 -24z"/>
<path d="M1568 1443 c-13 -3 -18 -15 -18 -44 0 -21 5 -39 11 -39 6 0 10 10 9
23 -3 35 -1 47 10 47 6 0 10 -16 10 -35 0 -19 5 -35 11 -35 13 0 8 83 -6 86
-5 1 -18 0 -27 -3z"/>
<path d="M1644 1435 c-18 -13 -8 -75 12 -75 7 0 16 -5 20 -11 5 -9 -1 -10 -20
-5 -16 4 -26 2 -26 -4 0 -17 27 -23 49 -10 30 16 26 40 -6 41 -18 1 -22 3 -10
6 16 4 37 40 37 62 0 10 -40 8 -56 -4z m27 -28 c-13 -13 -26 -3 -16 12 3 6 11
8 17 5 6 -4 6 -10 -1 -17z"/>
<path d="M1815 1434 c-30 -31 0 -86 39 -71 28 11 15 87 -15 87 -4 0 -15 -7
-24 -16z m38 -17 c3 -8 1 -20 -4 -28 -11 -19 -34 3 -26 25 8 20 23 21 30 3z"/>
<path d="M1908 1443 c-13 -3 -18 -15 -18 -44 0 -21 5 -39 10 -39 6 0 10 11 10
25 0 14 8 29 20 35 11 6 18 15 15 21 -6 9 -9 10 -37 2z"/>
<path d="M2013 1442 c-19 -3 -23 -10 -23 -43 0 -47 17 -53 22 -7 4 46 28 49
28 4 0 -45 18 -48 22 -3 2 17 8 32 13 32 6 0 11 -15 13 -32 2 -18 7 -33 13
-33 13 0 11 67 -3 76 -13 8 -51 11 -85 6z"/>
<path d="M2144 1442 c-18 -12 -24 -42 -14 -63 11 -20 45 -26 55 -9 3 6 -3 10
-14 10 -11 0 -23 5 -26 10 -4 6 5 10 19 10 28 0 34 18 14 38 -14 14 -19 14
-34 4z"/>
<path d="M2290 1403 c0 -50 17 -58 22 -10 2 17 8 32 13 32 6 0 11 -15 13 -32
2 -18 8 -33 14 -33 6 0 8 9 5 21 -6 24 1 49 14 49 5 0 9 -16 9 -35 0 -19 5
-35 11 -35 6 0 9 17 7 42 l-3 43 -52 0 -53 0 0 -42z"/>
<path d="M2433 1443 c-21 -8 -14 -25 7 -18 11 3 20 2 20 -3 0 -5 -9 -12 -20
-15 -12 -3 -20 -14 -20 -26 0 -17 6 -21 30 -21 27 0 30 3 30 33 0 18 -5 38
-12 45 -13 13 -16 13 -35 5z"/>
<path d="M2591 1436 c-7 -8 -11 -27 -9 -43 2 -22 9 -29 31 -31 15 -2 27 1 27
7 0 6 -9 11 -19 11 -11 0 -23 5 -26 10 -4 6 5 10 19 10 28 0 34 18 14 38 -16
16 -23 15 -37 -2z"/>
<path d="M2707 1443 c-12 -12 -7 -22 8 -17 22 9 18 -5 -7 -25 -27 -22 -16 -41
22 -41 28 0 29 2 24 33 -3 17 -7 38 -10 45 -4 13 -26 16 -37 5z"/>
<path d="M2962 1438 c-18 -18 -15 -68 4 -75 37 -14 70 41 44 73 -15 17 -32 18
-48 2z m36 -36 c2 -15 -2 -22 -12 -22 -11 0 -16 9 -16 26 0 31 23 28 28 -4z"/>
<path d="M3040 1403 c0 -24 5 -43 10 -43 6 0 10 14 10 30 0 20 5 30 15 30 8 0
15 6 15 14 0 9 -10 13 -25 12 -23 -1 -25 -5 -25 -43z"/>
<path d="M3140 1403 c0 -50 17 -58 22 -10 2 17 8 32 13 32 6 0 11 -15 13 -32
4 -41 22 -44 22 -4 0 17 5 33 10 36 6 4 10 -8 10 -29 0 -20 5 -36 11 -36 6 0
9 17 7 42 l-3 43 -52 0 -53 0 0 -42z"/>
<path d="M3287 1438 c-17 -9 -22 -34 -11 -62 7 -17 54 -22 54 -6 0 6 -9 10
-20 10 -11 0 -20 5 -20 10 0 6 9 10 20 10 13 0 20 7 20 19 0 23 -20 32 -43 19z"/>
<path d="M2200 1359 c0 -24 23 -21 28 4 2 10 -3 17 -12 17 -10 0 -16 -9 -16
-21z"/>
</g>
</svg>
